<svg xmlns="http://www.w3.org/2000/svg" xmlns:xlink="http://www.w3.org/1999/xlink" width="3158.595" height="1020.282" viewBox="0 0 3158.595 1020.282">
  <defs>
    <clipPath id="clip-path">
      <rect id="Rectangle_10" data-name="Rectangle 10" width="3158.595" height="1020.282" fill="none"/>
    </clipPath>
  </defs>
  <g id="Group_25" data-name="Group 25" opacity="0.035">
    <g id="Group_24" data-name="Group 24" transform="translate(0 0)" clip-path="url(#clip-path)">
      <path id="Path_2" data-name="Path 2" d="M505.273,1020.229c-65.042,0-127.02-11.043-184.243-32.865C173.721,930.724,56.793,800.058,15.9,646.355c-39.839-152.593-3.54-324.261,94.79-447.952C158.715,137.852,222.278,87.551,294.453,52.837,366.417,18.282,445.356,0,522.762,0h2.378C602.7.211,682.013,18.757,754.558,53.63c70.485,33.921,133.413,82.69,182.288,141.233l-14.055,13.421a168.476,168.476,0,0,1-203.475,22.826c-64.408-38.73-135-59.23-204.109-59.23a339.011,339.011,0,0,0-64.408,6.129C344.384,198.3,250.546,272.322,205.9,371.286c-44.964,98.541-38.888,217.953,15.9,311.633,54.052,93.68,154.707,157.93,262.758,167.652,10.409.951,21.082,1.427,31.7,1.427,73.919,0,150.216-22.826,220.595-65.993,110.8-68.054,208.231-179.382,289.494-330.971a10.855,10.855,0,0,0,2.325-4.6,67.683,67.683,0,0,0,4.544-8.084c.581-1.162,1.162-2.325,1.849-3.54,68.318-130.56,145.724-278.4,283.629-364.47C1392.142,28.8,1479.111,4.7,1570.255,4.7c90.3,0,177.427,23.565,251.98,68.16,77.3,45.651,141.18,113.23,184.982,195.655l-2.747,3.857c-23.565,33.234-60.181,52.256-100.549,52.256-36.457,0-71.753-16.01-96.8-43.96a327.213,327.213,0,0,0-83.535-67.314c-46.391-26.207-100.232-40.05-155.658-40.05-68.952,0-135.157,21.716-186.356,61.08a393.11,393.11,0,0,0-76.667,78.991c-32.6,43.432-57.751,92.57-78.04,134.893-6.34,12.47-12.681,25.52-18.81,38.148-3.012,6.288-6.023,12.522-9.088,18.651-.634,1.268-1.268,2.589-1.849,3.91-1.162,2.483-2.272,4.808-3.646,7.133l-.158.264-.106.264c-9.194,19.814-20.131,41.107-32.653,63.352-20.184,35.876-37.3,62.612-57.275,89.506l-.159.264c-7.4,11.307-15.587,22.72-22.773,32.759l-1.585,2.166c-2.166,2.906-4.544,5.918-6.922,8.982-2.43,3.064-4.808,6.182-7.133,9.246-63.827,80.365-134.628,145.355-210.4,192.961-107.048,67.156-231.056,104.142-349.147,104.194Z" transform="translate(0.007 0)" fill="#00324d"/>
      <path id="Path_3" data-name="Path 3" d="M1503.921,1020.126c-77.565-.159-156.873-18.7-229.418-53.63-70.484-33.921-133.413-82.69-182.288-141.233l14.054-13.421a168.476,168.476,0,0,1,203.476-22.826c64.408,38.729,135,59.23,204.109,59.23a338.045,338.045,0,0,0,64.355-6.129c106.414-20.289,200.252-94.314,244.9-193.278,44.964-98.541,38.888-217.953-15.9-311.633-54.052-93.68-154.707-157.93-262.758-167.652-10.409-.951-21.082-1.427-31.7-1.427-73.919,0-150.216,22.826-220.594,65.993-110.8,68.054-208.231,179.382-289.494,330.971a10.856,10.856,0,0,0-2.325,4.6,67.665,67.665,0,0,0-4.544,8.084c-.581,1.162-1.162,2.325-1.849,3.54-68.318,130.56-145.724,278.4-283.629,364.47-73.443,45.545-160.413,69.639-251.557,69.639-90.3,0-177.427-23.565-251.98-68.16-77.3-45.651-141.18-113.23-184.982-195.655l2.747-3.857C48.1,714.517,84.719,695.5,125.086,695.5c36.457,0,71.753,16.01,96.8,43.96a327.213,327.213,0,0,0,83.536,67.314c46.391,26.207,100.232,40.05,155.658,40.05,68.952,0,135.157-21.716,186.356-61.08A391.7,391.7,0,0,0,724.1,706.75c32.6-43.432,57.751-92.57,78.04-134.893,6.393-12.47,12.681-25.573,18.81-38.254,3.012-6.235,6.023-12.47,9.035-18.6.634-1.268,1.268-2.589,1.849-3.91,1.163-2.483,2.272-4.808,3.646-7.133l.159-.264.106-.264c9.194-19.814,20.131-41.16,32.653-63.351,20.184-35.876,37.3-62.612,57.275-89.506l.159-.264c7.45-11.307,15.587-22.773,22.825-32.812l1.532-2.113c2.219-2.906,4.544-5.971,6.922-8.982,2.43-3.065,4.808-6.182,7.133-9.246,63.827-80.365,134.629-145.355,210.4-192.961C1281.688,37.041,1405.7,0,1523.787,0c65.042,0,127.02,11.043,184.242,32.865,147.31,56.641,264.238,187.307,305.134,341.01,39.839,152.593,3.54,324.26-94.79,447.952-48.029,60.551-111.591,110.852-183.767,145.513-71.964,34.555-150.9,52.837-228.309,52.837h-2.378Z" transform="translate(1129.528 0.104)" fill="#00324d"/>
    </g>
  </g>
</svg>
